{
    "asset": {
        "version": "2.0",
        "generator": "Open Asset Import Library (assimp v5.2.cf7d3637)"
    },
    "extensionsUsed": [
        "KHR_materials_volume",
        "FB_ngon_encoding"
    ],
    "accessors": [
        {
            "bufferView": 0,
            "byteOffset": 0,
            "componentType": 5126,
            "count": 564,
            "type": "VEC3",
            "max": [
                1.1119999885559083,
                0.004999999888241291,
                2.496999979019165
            ],
            "min": [
                -1.1119999885559083,
                0.0,
                -2.496999979019165
            ]
        },
        {
            "bufferView": 1,
            "byteOffset": 0,
            "componentType": 5126,
            "count": 564,
            "type": "VEC3",
            "max": [
                1.0,
                1.0,
                1.0
            ],
            "min": [
                -1.0,
                -1.0,
                -1.0
            ]
        },
        {
            "bufferView": 2,
            "byteOffset": 0,
            "componentType": 5126,
            "count": 564,
            "type": "VEC2",
            "max": [
                0.8932954668998718,
                0.9994734525680542
            ],
            "min": [
                0.0006533288396894932,
                0.3399064540863037
            ]
        },
        {
            "bufferView": 3,
            "byteOffset": 0,
            "componentType": 5125,
            "count": 564,
            "type": "SCALAR",
            "max": [
                563
            ],
            "min": [
                0
            ]
        }
    ],
    "buffers": [
        {
            "byteLength": 20304,
            "uri": "result.bin"
        }
    ],
    "bufferViews": [
        {
            "buffer": 0,
            "byteOffset": 0,
            "byteLength": 6768,
            "target": 34962
        },
        {
            "buffer": 0,
            "byteOffset": 6768,
            "byteLength": 6768,
            "target": 34962
        },
        {
            "buffer": 0,
            "byteOffset": 13536,
            "byteLength": 4512,
            "target": 34962
        },
        {
            "buffer": 0,
            "byteOffset": 18048,
            "byteLength": 2256,
            "target": 34963
        }
    ],
    "images": [
        {
            "name": "Group 4.png",
            "uri": "data:image/png;base64,"
        }
    ],
    "materials": [
        {
            "name": "Material.006",
            "pbrMetallicRoughness": {
                "baseColorTexture": {
                    "index": 0
                },
                "metallicFactor": 0.0,
                "roughnessFactor": 0.5
            },
            "doubleSided": true
        },
        {
            "name": "material"
        }
    ],
    "meshes": [
        {
            "name": "Plane.006",
            "primitives": [
                {
                    "mode": 4,
                    "material": 0,
                    "indices": 3,
                    "attributes": {
                        "POSITION": 0,
                        "NORMAL": 1,
                        "TEXCOORD_0": 2
                    }
                }
            ]
        }
    ],
    "nodes": [
        {
            "name": "Plane.004",
            "matrix": [
                1.0,
                0.0,
                0.0,
                0.0,
                0.0,
                1.0,
                0.0,
                0.0,
                0.0,
                0.0,
                1.0,
                0.0,
                12.44436264038086,
                0.0,
                -0.1476670205593109,
                1.0
            ],
            "mesh": 0
        }
    ],
    "samplers": [
        {
            "magFilter": 9729,
            "minFilter": 9987
        }
    ],
    "scenes": [
        {
            "nodes": [
                0
            ]
        }
    ],
    "textures": [
        {
            "source": 0,
            "sampler": 0
        }
    ],
    "scene": 0
}